<svg xmlns="http://www.w3.org/2000/svg" width="24" height="24" fill="none" viewBox="0 0 24 24"><title>Chart bar ascending (filled)</title><g><path fill="#276EF1" fill-rule="nonzero" d="M4 0L0 0L0 12L4 12L4 0Z" clip-rule="nonzero" opacity="1" transform="matrix( 1 0 0 1 7 10 )"/></g>,<g><path fill="#276EF1" fill-rule="nonzero" d="M4 0L0 0L0 8L4 8L4 0Z" clip-rule="nonzero" opacity="1" transform="matrix( 1 0 0 1 1 14 )"/></g>,<g><path fill="#276EF1" fill-rule="nonzero" d="M4 0L0 0L0 16L4 16L4 0Z" clip-rule="nonzero" opacity="1" transform="matrix( 1 0 0 1 13 6 )"/></g>,<g><path fill="#276EF1" fill-rule="nonzero" d="M4 0L0 0L0 20L4 20L4 0Z" clip-rule="nonzero" opacity="1" transform="matrix( 1 0 0 1 19 2 )"/></g></svg>